ffmpeg started on 2025-07-06 at 17:28:03
Report written to "D:\Convert\FFMetrics\reports\ssim_report-6.txt"
Log level: 32
Command line:
ffmpeg -hide_banner -nostdin -i "G:\\\xc0\xed\xe8\xec\xe5\\\xce\xed\xe3\xee\xe8\xed\xe3\xe8\\!_37_\xc7\xe8\xec\xe0_2025\\JamClub\\\xc3\xee\xeb\xf3\xe1\xe0\xff \xf8\xea\xe0\xf2\xf3\xeb\xea\xe0\\JamClub_Ao_no_Hako_02_1080p_HEVC.mkv" -i "G:\\\xc0\xed\xe8\xec\xe5\\\xce\xed\xe3\xee\xe8\xed\xe3\xe8\\!_37_\xc7\xe8\xec\xe0_2025\\JamClub\\\xc3\xee\xeb\xf3\xe1\xe0\xff \xf8\xea\xe0\xf2\xf3\xeb\xea\xe0\\JamClub_Ao_no_Hako_02_1080p.mp4" -lavfi "[0:v]settb=AVTB,setpts=PTS-STARTPTS,format=pix_fmts=yuv420p10,fps=24000/1001,scale=1920:1080:flags=bicubic[main];[1:v]settb=AVTB,setpts=PTS-STARTPTS,format=pix_fmts=yuv420p,fps=24000/1001,scale=1920:1080:flags=bicubic[ref];[main][ref]ssim=eof_action=endall:stats_file='D\\:/Convert/FFMetrics/logs/ssim_logfile-6.txt'" -f null -
Input #0, matroska,webm, from 'G:\Аниме\Онгоинги\!_37_Зима_2025\JamClub\Голубая шкатулка\JamClub_Ao_no_Hako_02_1080p_HEVC.mkv':
  Metadata:
    COMPATIBLE_BRANDS: isomiso2avc1mp41
    MAJOR_BRAND     : isom
    MINOR_VERSION   : 512
    ENCODER         : Lavf61.7.100
  Duration: 00:23:59.23, start: -0.021000, bitrate: 1233 kb/s
  Stream #0:0: Video: hevc (Main 10), yuv420p10le(tv, bt709, progressive), 1920x1080 [SAR 1:1 DAR 16:9], 23.98 fps, 23.98 tbr, 1k tbn (default)
      Metadata:
        HANDLER_NAME    : VideoHandler
        VENDOR_ID       : [0][0][0][0]
        ENCODER         : Lavc61.19.100 libx265
        BPS             : 1035999
        DURATION        : 00:23:59.145708333
        NUMBER_OF_FRAMES: 34505
        NUMBER_OF_BYTES : 186369236
        _STATISTICS_WRITING_APP: mkvpropedit v66.0.0 ('Josie') 64-bit
        _STATISTICS_WRITING_DATE_UTC: 2025-06-30 12:33:40
        _STATISTICS_TAGS: BPS DURATION NUMBER_OF_FRAMES NUMBER_OF_BYTES
  Stream #0:1(eng): Audio: aac (LC), 48000 Hz, stereo, fltp (default)
      Metadata:
        HANDLER_NAME    : SoundHandler
        VENDOR_ID       : [0][0][0][0]
        ENCODER         : Lavc61.19.100 aac
        BPS             : 193349
        DURATION        : 00:23:59.213000000
        NUMBER_OF_FRAMES: 67464
        NUMBER_OF_BYTES : 34783905
        _STATISTICS_WRITING_APP: mkvpropedit v66.0.0 ('Josie') 64-bit
        _STATISTICS_WRITING_DATE_UTC: 2025-06-30 12:33:40
        _STATISTICS_TAGS: BPS DURATION NUMBER_OF_FRAMES NUMBER_OF_BYTES
Input #1, mov,mp4,m4a,3gp,3g2,mj2, from 'G:\Аниме\Онгоинги\!_37_Зима_2025\JamClub\Голубая шкатулка\JamClub_Ao_no_Hako_02_1080p.mp4':
  Metadata:
    major_brand     : isom
    minor_version   : 512
    compatible_brands: isomiso2avc1mp41
    encoder         : Lavf60.16.100
  Duration: 00:23:59.21, start: 0.000000, bitrate: 4599 kb/s
  Stream #1:0[0x1](und): Video: h264 (High) (avc1 / 0x31637661), yuv420p(tv, bt709, progressive), 1920x1080 [SAR 1:1 DAR 16:9], 4401 kb/s, 23.98 fps, 23.98 tbr, 90k tbn (default)
      Metadata:
        handler_name    : VideoHandler
        vendor_id       : [0][0][0][0]
  Stream #1:1[0x2](eng): Audio: aac (LC) (mp4a / 0x6134706D), 48000 Hz, stereo, fltp, 191 kb/s (default)
      Metadata:
        handler_name    : SoundHandler
        vendor_id       : [0][0][0][0]
Stream mapping:
  Stream #0:0 (hevc) -> settb:default
  Stream #1:0 (h264) -> settb:default
  ssim:default -> Stream #0:0 (wrapped_avframe)
  Stream #0:1 -> #0:1 (aac (native) -> pcm_s16le (native))
Output #0, null, to 'pipe:':
  Metadata:
    COMPATIBLE_BRANDS: isomiso2avc1mp41
    MAJOR_BRAND     : isom
    MINOR_VERSION   : 512
    encoder         : Lavf61.7.100
  Stream #0:0: Video: wrapped_avframe, yuv420p10le(tv, bt709, progressive), 1920x1080 [SAR 1:1 DAR 16:9], q=2-31, 200 kb/s, 23.98 fps, 23.98 tbn
      Metadata:
        encoder         : Lavc61.19.100 wrapped_avframe
  Stream #0:1(eng): Audio: pcm_s16le, 48000 Hz, stereo, s16, 1536 kb/s (default)
      Metadata:
        HANDLER_NAME    : SoundHandler
        VENDOR_ID       : [0][0][0][0]
        _STATISTICS_TAGS: BPS DURATION NUMBER_OF_FRAMES NUMBER_OF_BYTES
        BPS             : 193349
        DURATION        : 00:23:59.213000000
        NUMBER_OF_FRAMES: 67464
        NUMBER_OF_BYTES : 34783905
        _STATISTICS_WRITING_APP: mkvpropedit v66.0.0 ('Josie') 64-bit
        _STATISTICS_WRITING_DATE_UTC: 2025-06-30 12:33:40
        encoder         : Lavc61.19.100 pcm_s16le
frame=  117 fps=0.0 q=-0.0 size=N/A time=00:00:04.87 bitrate=N/A speed=9.43x    frame=  280 fps=272 q=-0.0 size=N/A time=00:00:11.67 bitrate=N/A speed=11.3x    frame=  481 fps=312 q=-0.0 size=N/A time=00:00:20.06 bitrate=N/A speed=  13x    frame=  738 fps=360 q=-0.0 size=N/A time=00:00:30.78 bitrate=N/A speed=  15x    frame= 1013 fps=393 q=-0.0 size=N/A time=00:00:42.25 bitrate=N/A speed=16.4x    frame= 1248 fps=404 q=-0.0 size=N/A time=00:00:52.05 bitrate=N/A speed=16.8x    frame= 1464 fps=406 q=-0.0 size=N/A time=00:01:01.06 bitrate=N/A speed=  17x    frame= 1688 fps=410 q=-0.0 size=N/A time=00:01:10.40 bitrate=N/A speed=17.1x    frame= 1901 fps=410 q=-0.0 size=N/A time=00:01:19.28 bitrate=N/A speed=17.1x    frame= 2106 fps=409 q=-0.0 size=N/A time=00:01:27.83 bitrate=N/A speed=  17x    frame= 2320 fps=410 q=-0.0 size=N/A time=00:01:36.76 bitrate=N/A speed=17.1x    frame= 2541 fps=410 q=-0.0 size=N/A time=00:01:45.98 bitrate=N/A speed=17.1x    frame= 2739 fps=409 q=-0.0 size=N/A time=00:01:54.23 bitrate=N/A speed=  17x    frame= 2925 fps=405 q=-0.0 size=N/A time=00:02:01.99 bitrate=N/A speed=16.9x    frame= 3131 fps=405 q=-0.0 size=N/A time=00:02:10.58 bitrate=N/A speed=16.9x    frame= 3343 fps=405 q=-0.0 size=N/A time=00:02:19.43 bitrate=N/A speed=16.9x    frame= 3552 fps=405 q=-0.0 size=N/A time=00:02:28.14 bitrate=N/A speed=16.9x    frame= 3786 fps=408 q=-0.0 size=N/A time=00:02:37.90 bitrate=N/A speed=  17x    frame= 3980 fps=407 q=-0.0 size=N/A time=00:02:45.99 bitrate=N/A speed=  17x    frame= 4225 fps=410 q=-0.0 size=N/A time=00:02:56.21 bitrate=N/A speed=17.1x    frame= 4464 fps=412 q=-0.0 size=N/A time=00:03:06.18 bitrate=N/A speed=17.2x    frame= 4726 fps=417 q=-0.0 size=N/A time=00:03:17.11 bitrate=N/A speed=17.4x    frame= 4981 fps=420 q=-0.0 size=N/A time=00:03:27.74 bitrate=N/A speed=17.5x    frame= 5236 fps=423 q=-0.0 size=N/A time=00:03:38.38 bitrate=N/A speed=17.6x    frame= 5472 fps=425 q=-0.0 size=N/A time=00:03:48.22 bitrate=N/A speed=17.7x    frame= 5704 fps=426 q=-0.0 size=N/A time=00:03:57.90 bitrate=N/A speed=17.8x    frame= 5970 fps=429 q=-0.0 size=N/A time=00:04:08.99 bitrate=N/A speed=17.9x    frame= 6221 fps=431 q=-0.0 size=N/A time=00:04:19.46 bitrate=N/A speed=  18x    frame= 6454 fps=432 q=-0.0 size=N/A time=00:04:29.18 bitrate=N/A speed=  18x    frame= 6682 fps=432 q=-0.0 size=N/A time=00:04:38.69 bitrate=N/A speed=  18x    frame= 6929 fps=433 q=-0.0 size=N/A time=00:04:48.99 bitrate=N/A speed=18.1x    frame= 7105 fps=431 q=-0.0 size=N/A time=00:04:56.33 bitrate=N/A speed=  18x    frame= 7316 fps=430 q=-0.0 size=N/A time=00:05:05.13 bitrate=N/A speed=17.9x    frame= 7515 fps=429 q=-0.0 size=N/A time=00:05:13.43 bitrate=N/A speed=17.9x    frame= 7771 fps=431 q=-0.0 size=N/A time=00:05:24.11 bitrate=N/A speed=  18x    frame= 7974 fps=430 q=-0.0 size=N/A time=00:05:32.58 bitrate=N/A speed=17.9x    frame= 8199 fps=430 q=-0.0 size=N/A time=00:05:41.96 bitrate=N/A speed=17.9x    frame= 8451 fps=432 q=-0.0 size=N/A time=00:05:52.47 bitrate=N/A speed=  18x    frame= 8697 fps=432 q=-0.0 size=N/A time=00:06:02.73 bitrate=N/A speed=  18x    frame= 8949 fps=434 q=-0.0 size=N/A time=00:06:13.24 bitrate=N/A speed=18.1x    frame= 9206 fps=436 q=-0.0 size=N/A time=00:06:23.96 bitrate=N/A speed=18.2x    frame= 9445 fps=436 q=-0.0 size=N/A time=00:06:33.93 bitrate=N/A speed=18.2x    frame= 9683 fps=437 q=-0.0 size=N/A time=00:06:43.86 bitrate=N/A speed=18.2x    frame= 9929 fps=438 q=-0.0 size=N/A time=00:06:54.12 bitrate=N/A speed=18.3x    frame=10173 fps=439 q=-0.0 size=N/A time=00:07:04.29 bitrate=N/A speed=18.3x    frame=10432 fps=440 q=-0.0 size=N/A time=00:07:15.10 bitrate=N/A speed=18.3x    frame=10682 fps=441 q=-0.0 size=N/A time=00:07:25.52 bitrate=N/A speed=18.4x    frame=10929 fps=442 q=-0.0 size=N/A time=00:07:35.83 bitrate=N/A speed=18.4x    frame=11164 fps=442 q=-0.0 size=N/A time=00:07:45.63 bitrate=N/A speed=18.4x    frame=11419 fps=443 q=-0.0 size=N/A time=00:07:56.26 bitrate=N/A speed=18.5x    frame=11671 fps=444 q=-0.0 size=N/A time=00:08:06.77 bitrate=N/A speed=18.5x    frame=11932 fps=445 q=-0.0 size=N/A time=00:08:17.66 bitrate=N/A speed=18.6x    frame=12173 fps=446 q=-0.0 size=N/A time=00:08:27.71 bitrate=N/A speed=18.6x    frame=12445 fps=447 q=-0.0 size=N/A time=00:08:39.06 bitrate=N/A speed=18.6x    frame=12693 fps=448 q=-0.0 size=N/A time=00:08:49.40 bitrate=N/A speed=18.7x    frame=12950 fps=449 q=-0.0 size=N/A time=00:09:00.12 bitrate=N/A speed=18.7x    frame=13202 fps=449 q=-0.0 size=N/A time=00:09:10.63 bitrate=N/A speed=18.7x    frame=13434 fps=449 q=-0.0 size=N/A time=00:09:20.30 bitrate=N/A speed=18.7x    frame=13682 fps=450 q=-0.0 size=N/A time=00:09:30.65 bitrate=N/A speed=18.8x    frame=13916 fps=450 q=-0.0 size=N/A time=00:09:40.41 bitrate=N/A speed=18.8x    frame=14185 fps=451 q=-0.0 size=N/A time=00:09:51.63 bitrate=N/A speed=18.8x    frame=14433 fps=451 q=-0.0 size=N/A time=00:10:01.97 bitrate=N/A speed=18.8x    frame=14687 fps=452 q=-0.0 size=N/A time=00:10:12.57 bitrate=N/A speed=18.9x    frame=14944 fps=453 q=-0.0 size=N/A time=00:10:23.28 bitrate=N/A speed=18.9x    frame=15165 fps=452 q=-0.0 size=N/A time=00:10:32.50 bitrate=N/A speed=18.9x    frame=15392 fps=452 q=-0.0 size=N/A time=00:10:41.97 bitrate=N/A speed=18.9x    frame=15624 fps=452 q=-0.0 size=N/A time=00:10:51.65 bitrate=N/A speed=18.9x    frame=15848 fps=452 q=-0.0 size=N/A time=00:11:00.99 bitrate=N/A speed=18.9x    frame=16096 fps=452 q=-0.0 size=N/A time=00:11:11.33 bitrate=N/A speed=18.9x    frame=16344 fps=453 q=-0.0 size=N/A time=00:11:21.68 bitrate=N/A speed=18.9x    frame=16591 fps=453 q=-0.0 size=N/A time=00:11:31.98 bitrate=N/A speed=18.9x    frame=16862 fps=454 q=-0.0 size=N/A time=00:11:43.28 bitrate=N/A speed=18.9x    frame=17144 fps=455 q=-0.0 size=N/A time=00:11:55.04 bitrate=N/A speed=  19x    frame=17416 fps=456 q=-0.0 size=N/A time=00:12:06.39 bitrate=N/A speed=  19x    frame=17674 fps=457 q=-0.0 size=N/A time=00:12:17.15 bitrate=N/A speed=19.1x    frame=17931 fps=457 q=-0.0 size=N/A time=00:12:27.87 bitrate=N/A speed=19.1x    frame=18184 fps=458 q=-0.0 size=N/A time=00:12:38.42 bitrate=N/A speed=19.1x    frame=18412 fps=458 q=-0.0 size=N/A time=00:12:47.93 bitrate=N/A speed=19.1x    frame=18660 fps=458 q=-0.0 size=N/A time=00:12:58.27 bitrate=N/A speed=19.1x    frame=18915 fps=458 q=-0.0 size=N/A time=00:13:08.91 bitrate=N/A speed=19.1x    frame=19153 fps=458 q=-0.0 size=N/A time=00:13:18.83 bitrate=N/A speed=19.1x    frame=19376 fps=458 q=-0.0 size=N/A time=00:13:28.14 bitrate=N/A speed=19.1x    frame=19617 fps=458 q=-0.0 size=N/A time=00:13:38.19 bitrate=N/A speed=19.1x    frame=19878 fps=459 q=-0.0 size=N/A time=00:13:49.07 bitrate=N/A speed=19.1x    frame=20131 fps=459 q=-0.0 size=N/A time=00:13:59.63 bitrate=N/A speed=19.2x    frame=20406 fps=460 q=-0.0 size=N/A time=00:14:11.10 bitrate=N/A speed=19.2x    frame=20670 fps=461 q=-0.0 size=N/A time=00:14:22.11 bitrate=N/A speed=19.2x    frame=20934 fps=461 q=-0.0 size=N/A time=00:14:33.12 bitrate=N/A speed=19.2x    frame=21178 fps=461 q=-0.0 size=N/A time=00:14:43.29 bitrate=N/A speed=19.2x    frame=21410 fps=461 q=-0.0 size=N/A time=00:14:52.97 bitrate=N/A speed=19.2x    frame=21647 fps=461 q=-0.0 size=N/A time=00:15:02.86 bitrate=N/A speed=19.2x    frame=21887 fps=461 q=-0.0 size=N/A time=00:15:12.87 bitrate=N/A speed=19.2x    frame=22132 fps=461 q=-0.0 size=N/A time=00:15:23.08 bitrate=N/A speed=19.2x    frame=22402 fps=462 q=-0.0 size=N/A time=00:15:34.35 bitrate=N/A speed=19.3x    frame=22680 fps=463 q=-0.0 size=N/A time=00:15:45.94 bitrate=N/A speed=19.3x    frame=22922 fps=463 q=-0.0 size=N/A time=00:15:56.03 bitrate=N/A speed=19.3x    frame=23161 fps=463 q=-0.0 size=N/A time=00:16:06.00 bitrate=N/A speed=19.3x    frame=23397 fps=463 q=-0.0 size=N/A time=00:16:15.84 bitrate=N/A speed=19.3x    frame=23655 fps=463 q=-0.0 size=N/A time=00:16:26.61 bitrate=N/A speed=19.3x    frame=23898 fps=463 q=-0.0 size=N/A time=00:16:36.74 bitrate=N/A speed=19.3x    frame=24150 fps=464 q=-0.0 size=N/A time=00:16:47.25 bitrate=N/A speed=19.3x    frame=24394 fps=464 q=-0.0 size=N/A time=00:16:57.43 bitrate=N/A speed=19.3x    frame=24651 fps=464 q=-0.0 size=N/A time=00:17:08.15 bitrate=N/A speed=19.4x    frame=24901 fps=464 q=-0.0 size=N/A time=00:17:18.57 bitrate=N/A speed=19.4x    frame=25154 fps=465 q=-0.0 size=N/A time=00:17:29.13 bitrate=N/A speed=19.4x    frame=25408 fps=465 q=-0.0 size=N/A time=00:17:39.72 bitrate=N/A speed=19.4x    frame=25658 fps=465 q=-0.0 size=N/A time=00:17:50.15 bitrate=N/A speed=19.4x    frame=25863 fps=464 q=-0.0 size=N/A time=00:17:58.70 bitrate=N/A speed=19.4x    frame=26065 fps=464 q=-0.0 size=N/A time=00:18:07.12 bitrate=N/A speed=19.3x    frame=26317 fps=464 q=-0.0 size=N/A time=00:18:17.63 bitrate=N/A speed=19.3x    frame=26542 fps=464 q=-0.0 size=N/A time=00:18:27.02 bitrate=N/A speed=19.3x    frame=26778 fps=464 q=-0.0 size=N/A time=00:18:36.86 bitrate=N/A speed=19.3x    frame=27009 fps=464 q=-0.0 size=N/A time=00:18:46.50 bitrate=N/A speed=19.3x    frame=27253 fps=464 q=-0.0 size=N/A time=00:18:56.67 bitrate=N/A speed=19.3x    frame=27485 fps=463 q=-0.0 size=N/A time=00:19:06.35 bitrate=N/A speed=19.3x    frame=27734 fps=464 q=-0.0 size=N/A time=00:19:16.73 bitrate=N/A speed=19.3x    frame=27998 fps=464 q=-0.0 size=N/A time=00:19:27.74 bitrate=N/A speed=19.4x    frame=28236 fps=464 q=-0.0 size=N/A time=00:19:37.67 bitrate=N/A speed=19.4x    frame=28478 fps=464 q=-0.0 size=N/A time=00:19:47.76 bitrate=N/A speed=19.4x    frame=28714 fps=464 q=-0.0 size=N/A time=00:19:57.61 bitrate=N/A speed=19.4x    frame=28968 fps=464 q=-0.0 size=N/A time=00:20:08.20 bitrate=N/A speed=19.4x    frame=29213 fps=464 q=-0.0 size=N/A time=00:20:18.42 bitrate=N/A speed=19.4x    frame=29448 fps=464 q=-0.0 size=N/A time=00:20:28.22 bitrate=N/A speed=19.4x    frame=29671 fps=464 q=-0.0 size=N/A time=00:20:37.52 bitrate=N/A speed=19.4x    frame=29909 fps=464 q=-0.0 size=N/A time=00:20:47.45 bitrate=N/A speed=19.3x    frame=30150 fps=464 q=-0.0 size=N/A time=00:20:57.50 bitrate=N/A speed=19.4x    frame=30353 fps=463 q=-0.0 size=N/A time=00:21:05.97 bitrate=N/A speed=19.3x    frame=30564 fps=463 q=-0.0 size=N/A time=00:21:14.77 bitrate=N/A speed=19.3x    frame=30813 fps=463 q=-0.0 size=N/A time=00:21:25.15 bitrate=N/A speed=19.3x    frame=31044 fps=463 q=-0.0 size=N/A time=00:21:34.79 bitrate=N/A speed=19.3x    frame=31278 fps=463 q=-0.0 size=N/A time=00:21:44.55 bitrate=N/A speed=19.3x    frame=31466 fps=462 q=-0.0 size=N/A time=00:21:52.39 bitrate=N/A speed=19.3x    frame=31687 fps=462 q=-0.0 size=N/A time=00:22:01.61 bitrate=N/A speed=19.3x    frame=31899 fps=462 q=-0.0 size=N/A time=00:22:10.45 bitrate=N/A speed=19.3x    frame=32147 fps=462 q=-0.0 size=N/A time=00:22:20.79 bitrate=N/A speed=19.3x    frame=32389 fps=462 q=-0.0 size=N/A time=00:22:30.89 bitrate=N/A speed=19.3x    frame=32606 fps=461 q=-0.0 size=N/A time=00:22:39.94 bitrate=N/A speed=19.2x    frame=32795 fps=461 q=-0.0 size=N/A time=00:22:47.82 bitrate=N/A speed=19.2x    frame=33010 fps=461 q=-0.0 size=N/A time=00:22:56.79 bitrate=N/A speed=19.2x    frame=33208 fps=460 q=-0.0 size=N/A time=00:23:05.05 bitrate=N/A speed=19.2x    frame=33444 fps=460 q=-0.0 size=N/A time=00:23:14.89 bitrate=N/A speed=19.2x    frame=33672 fps=460 q=-0.0 size=N/A time=00:23:24.40 bitrate=N/A speed=19.2x    frame=33885 fps=460 q=-0.0 size=N/A time=00:23:33.28 bitrate=N/A speed=19.2x    frame=34109 fps=459 q=-0.0 size=N/A time=00:23:42.62 bitrate=N/A speed=19.2x    frame=34333 fps=459 q=-0.0 size=N/A time=00:23:51.97 bitrate=N/A speed=19.1x    [Parsed_ssim_10 @ 0000016be249a040] SSIM Y:0.994146 (22.325202) U:0.993998 (22.217331) V:0.993689 (21.998766) All:0.994045 (22.251131)
[out#0/null @ 0000016be1d5c040] video:14826KiB audio:269856KiB subtitle:0KiB other streams:0KiB global headers:0KiB muxing overhead: unknown
frame=34505 fps=459 q=-0.0 Lsize=N/A time=00:23:59.14 bitrate=N/A speed=19.2x    
